<svg width="249" height="232" viewBox="0 0 249 232" fill="none" xmlns="http://www.w3.org/2000/svg">
<path d="M16.1674 74.6116L6.09277 65.1722" stroke="white" stroke-width="5" stroke-miterlimit="10" stroke-linecap="round" stroke-linejoin="round"/>
<path d="M6.40967 74.9216L15.8505 64.8622" stroke="white" stroke-width="5" stroke-miterlimit="10" stroke-linecap="round" stroke-linejoin="round"/>
<path d="M177.645 92.9493L167.577 83.5166" stroke="white" stroke-width="5" stroke-miterlimit="10" stroke-linecap="round" stroke-linejoin="round"/>
<path d="M167.888 93.266L177.335 83.2066" stroke="white" stroke-width="5" stroke-miterlimit="10" stroke-linecap="round" stroke-linejoin="round"/>
<path d="M169.829 184.196L159.761 174.764" stroke="white" stroke-width="5" stroke-miterlimit="10" stroke-linecap="round" stroke-linejoin="round"/>
<path d="M160.071 184.513L169.512 174.454" stroke="white" stroke-width="5" stroke-miterlimit="10" stroke-linecap="round" stroke-linejoin="round"/>
<path d="M56.4989 91.4058L49.5668 79.4269L42.6545 91.4124L35.7422 103.398L49.5866 103.391L63.431 103.385L56.4989 91.4058Z" stroke="white" stroke-width="5" stroke-miterlimit="10" stroke-linecap="round" stroke-linejoin="round"/>
<path d="M135.954 136.373L129.022 124.394L122.109 136.38L115.19 148.372L129.035 148.359L142.886 148.352L135.954 136.373Z" stroke="white" stroke-width="5" stroke-miterlimit="10" stroke-linecap="round" stroke-linejoin="round"/>
<path d="M181.652 44.4004L185.231 31.0296L171.855 34.6246L158.479 38.213L168.277 47.9888L178.074 57.7711L181.652 44.4004Z" stroke="white" stroke-width="5" stroke-miterlimit="10" stroke-linecap="round" stroke-linejoin="round"/>
<path d="M102.825 19.7037C102.825 25.5019 98.1243 30.1985 92.3212 30.1985C86.518 30.1985 81.8174 25.5019 81.8174 19.7037C81.8174 13.9055 86.518 9.20892 92.3212 9.20892C98.1243 9.20892 102.825 13.9055 102.825 19.7037Z" stroke="white" stroke-width="5" stroke-miterlimit="10" stroke-linecap="round" stroke-linejoin="round"/>
<path d="M56.446 212.363C56.446 218.161 51.7454 222.857 45.9423 222.857C40.1391 222.857 35.4385 218.161 35.4385 212.363C35.4385 206.564 40.1457 201.868 45.9423 201.868C51.7454 201.861 56.446 206.564 56.446 212.363Z" stroke="white" stroke-width="5" stroke-miterlimit="10" stroke-linecap="round" stroke-linejoin="round"/>
<path d="M84.5439 196.67C84.5439 190.872 89.2512 186.175 95.0477 186.175C100.851 186.175 105.551 190.872 105.551 196.67" stroke="white" stroke-width="5" stroke-miterlimit="10" stroke-linecap="round" stroke-linejoin="round"/>
<path d="M0.692383 35.4492C0.692383 29.651 5.39961 24.9544 11.1962 24.9544C16.9927 24.9544 21.6999 29.651 21.6999 35.4492" stroke="white" stroke-width="5" stroke-miterlimit="10" stroke-linecap="round" stroke-linejoin="round"/>
<path d="M231.234 113.899C231.234 119.697 226.533 124.394 220.73 124.394C214.927 124.394 210.227 119.697 210.227 113.899C210.227 108.101 214.927 103.404 220.73 103.404C226.533 103.398 231.234 108.101 231.234 113.899Z" stroke="white" stroke-width="5" stroke-miterlimit="10" stroke-linecap="round" stroke-linejoin="round"/>
<path d="M223.074 191.426H202.179V212.303H223.074V191.426Z" stroke="white" stroke-width="5" stroke-miterlimit="10" stroke-linecap="round" stroke-linejoin="round"/>
<path d="M85.4553 69.8952C80.8933 69.8952 81.6789 61.8147 75.856 61.8147" stroke="white" stroke-width="5" stroke-miterlimit="10" stroke-linecap="round" stroke-linejoin="round"/>
<path d="M104.647 69.8952C100.085 69.8952 100.871 61.8147 95.0479 61.8147" stroke="white" stroke-width="5" stroke-miterlimit="10" stroke-linecap="round" stroke-linejoin="round"/>
<path d="M85.4551 69.8952C90.0171 69.8952 89.2314 61.8147 95.0544 61.8147" stroke="white" stroke-width="5" stroke-miterlimit="10" stroke-linecap="round" stroke-linejoin="round"/>
<path d="M104.647 69.8952C109.209 69.8952 108.424 61.8147 114.247 61.8147" stroke="white" stroke-width="5" stroke-miterlimit="10" stroke-linecap="round" stroke-linejoin="round"/>
<path d="M140.132 220.443C135.571 220.443 136.356 212.356 130.533 212.356" stroke="white" stroke-width="5" stroke-miterlimit="10" stroke-linecap="round" stroke-linejoin="round"/>
<path d="M159.325 220.443C154.763 220.443 155.549 212.363 149.726 212.363" stroke="white" stroke-width="5" stroke-miterlimit="10" stroke-linecap="round" stroke-linejoin="round"/>
<path d="M140.133 220.443C144.695 220.443 143.909 212.363 149.732 212.363" stroke="white" stroke-width="5" stroke-miterlimit="10" stroke-linecap="round" stroke-linejoin="round"/>
<path d="M159.324 220.443C163.886 220.443 163.101 212.356 168.924 212.363" stroke="white" stroke-width="5" stroke-miterlimit="10" stroke-linecap="round" stroke-linejoin="round"/>
<path d="M166.303 3.39758C161.741 3.39758 162.527 -4.68291 156.704 -4.68291" stroke="white" stroke-width="5" stroke-miterlimit="10" stroke-linecap="round" stroke-linejoin="round"/>
<path d="M185.502 3.39758C180.94 3.39758 181.725 -4.68291 175.902 -4.68291" stroke="white" stroke-width="5" stroke-miterlimit="10" stroke-linecap="round" stroke-linejoin="round"/>
<path d="M166.304 3.39758C170.866 3.39758 170.08 -4.68291 175.903 -4.68291" stroke="white" stroke-width="5" stroke-miterlimit="10" stroke-linecap="round" stroke-linejoin="round"/>
<path d="M185.502 3.39758C190.064 3.39758 189.278 -4.68291 195.101 -4.68291" stroke="white" stroke-width="5" stroke-miterlimit="10" stroke-linecap="round" stroke-linejoin="round"/>
<path d="M187.72 145.971C187.72 150.529 179.633 149.744 179.633 155.562" stroke="white" stroke-width="5" stroke-miterlimit="10" stroke-linecap="round" stroke-linejoin="round"/>
<path d="M187.72 126.795C187.72 131.353 179.633 130.568 179.633 136.386" stroke="white" stroke-width="5" stroke-miterlimit="10" stroke-linecap="round" stroke-linejoin="round"/>
<path d="M187.72 145.971C187.72 141.413 179.633 142.198 179.633 136.38" stroke="white" stroke-width="5" stroke-miterlimit="10" stroke-linecap="round" stroke-linejoin="round"/>
<path d="M187.72 126.795C187.72 122.237 179.633 123.022 179.633 117.204" stroke="white" stroke-width="5" stroke-miterlimit="10" stroke-linecap="round" stroke-linejoin="round"/>
<path d="M108.457 91.4124H132.138" stroke="white" stroke-width="5" stroke-miterlimit="10" stroke-linecap="round" stroke-linejoin="round"/>
<path d="M30.8633 166.604L47.6059 149.869" stroke="white" stroke-width="5" stroke-miterlimit="10" stroke-linecap="round" stroke-linejoin="round"/>
<path d="M215.409 47.903L232.152 31.1747" stroke="white" stroke-width="5" stroke-miterlimit="10" stroke-linecap="round" stroke-linejoin="round"/>
<g opacity="0.3">
<path opacity="0.3" d="M71.565 100.218L64.6329 88.233L57.7207 100.225L50.8018 112.211L64.6461 112.204L78.4971 112.197L71.565 100.218Z" stroke="white" stroke-miterlimit="10"/>
<path opacity="0.3" d="M151.02 145.186L144.088 133.207L137.176 145.192L130.257 157.184L144.101 157.171L157.952 157.165L151.02 145.186Z" stroke="white" stroke-miterlimit="10"/>
<path opacity="0.3" d="M196.712 53.2131L200.291 39.8423L186.922 43.4373L173.546 47.0257L183.343 56.8015L193.141 66.5838L196.712 53.2131Z" stroke="white" stroke-miterlimit="10"/>
<path opacity="0.3" d="M117.891 28.5164C117.891 34.3146 113.19 39.0112 107.387 39.0112C101.584 39.0112 96.8833 34.3146 96.8833 28.5164C96.8833 22.7183 101.584 18.0217 107.387 18.0217C113.184 18.0151 117.891 22.7183 117.891 28.5164Z" stroke="white" stroke-miterlimit="10"/>
<path opacity="0.3" d="M71.512 221.175C71.512 226.974 66.8113 231.67 61.0082 231.67C55.205 231.67 50.5044 226.974 50.5044 221.175C50.5044 215.377 55.2116 210.681 61.0082 210.681C66.8047 210.674 71.512 215.377 71.512 221.175Z" stroke="white" stroke-miterlimit="10"/>
<path opacity="0.3" d="M99.6099 205.483C99.6099 199.685 104.317 194.988 110.114 194.988C115.917 194.988 120.617 199.685 120.617 205.483" stroke="white" stroke-miterlimit="10"/>
<path opacity="0.3" d="M15.7583 44.2618C15.7583 38.4637 20.4655 33.7671 26.2621 33.7671C32.0586 33.7671 36.7658 38.4637 36.7658 44.2618" stroke="white" stroke-miterlimit="10"/>
<path opacity="0.3" d="M246.3 122.705C246.3 128.504 241.599 133.2 235.796 133.2C229.993 133.2 225.292 128.504 225.292 122.705C225.292 116.907 229.993 112.211 235.796 112.211C241.592 112.211 246.3 116.914 246.3 122.705Z" stroke="white" stroke-miterlimit="10"/>
<path opacity="0.3" d="M0.804504 99.0773H-20.0908V119.955H0.804504V99.0773Z" stroke="white" stroke-miterlimit="10"/>
<path opacity="0.3" d="M238.134 200.239H217.238V221.116H238.134V200.239Z" stroke="white" stroke-miterlimit="10"/>
<g opacity="0.3">
<path opacity="0.3" d="M100.521 78.7078C95.9592 78.7078 96.7448 70.6273 90.9219 70.6273" stroke="white" stroke-miterlimit="10"/>
<path opacity="0.3" d="M119.714 78.7078C115.152 78.7078 115.937 70.6273 110.114 70.6273" stroke="white" stroke-miterlimit="10"/>
<path opacity="0.3" d="M100.521 78.7078C105.083 78.7078 104.297 70.6273 110.12 70.6273" stroke="white" stroke-miterlimit="10"/>
<path opacity="0.3" d="M119.713 78.7078C124.275 78.7078 123.489 70.6273 129.312 70.6273" stroke="white" stroke-miterlimit="10"/>
</g>
<g opacity="0.3">
<path opacity="0.3" d="M155.199 229.256C150.637 229.256 151.423 221.169 145.6 221.169" stroke="white" stroke-miterlimit="10"/>
<path opacity="0.3" d="M174.391 229.256C169.829 229.256 170.615 221.175 164.792 221.175" stroke="white" stroke-miterlimit="10"/>
<path opacity="0.3" d="M155.199 229.256C159.761 229.256 158.976 221.175 164.798 221.175" stroke="white" stroke-miterlimit="10"/>
<path opacity="0.3" d="M174.391 229.256C178.953 229.256 178.167 221.169 183.99 221.175" stroke="white" stroke-miterlimit="10"/>
</g>
<g opacity="0.3">
<path opacity="0.3" d="M181.369 12.2103C176.807 12.2103 177.592 4.12975 171.77 4.12975" stroke="white" stroke-miterlimit="10"/>
<path opacity="0.3" d="M200.561 12.2103C195.999 12.2103 196.785 4.12975 190.962 4.12975" stroke="white" stroke-miterlimit="10"/>
<path opacity="0.3" d="M181.369 12.2103C185.931 12.2103 185.145 4.12975 190.968 4.12975" stroke="white" stroke-miterlimit="10"/>
<path opacity="0.3" d="M200.561 12.2103C205.123 12.2103 204.337 4.12975 210.16 4.12975" stroke="white" stroke-miterlimit="10"/>
</g>
<g opacity="0.3">
<path opacity="0.3" d="M43.2622 -5.46132C43.2622 -0.90325 35.1748 -1.68821 35.1748 4.12976" stroke="white" stroke-miterlimit="10"/>
</g>
<g opacity="0.3">
<path opacity="0.3" d="M202.786 154.783C202.786 159.341 194.698 158.556 194.698 164.374" stroke="white" stroke-miterlimit="10"/>
<path opacity="0.3" d="M202.786 135.608C202.786 140.166 194.698 139.381 194.698 145.199" stroke="white" stroke-miterlimit="10"/>
<path opacity="0.3" d="M202.786 154.783C202.786 150.225 194.698 151.01 194.698 145.192" stroke="white" stroke-miterlimit="10"/>
<path opacity="0.3" d="M202.786 135.608C202.786 131.05 194.698 131.835 194.698 126.017" stroke="white" stroke-miterlimit="10"/>
</g>
<g opacity="0.3">
<path opacity="0.3" d="M4.85161 169.895C4.85161 174.453 -3.23584 173.669 -3.23584 179.487" stroke="white" stroke-miterlimit="10"/>
<path opacity="0.3" d="M4.85161 150.72C4.85161 155.278 -3.23584 154.493 -3.23584 160.311" stroke="white" stroke-miterlimit="10"/>
<path opacity="0.3" d="M4.85161 169.895C4.85161 165.337 -3.23584 166.122 -3.23584 160.304" stroke="white" stroke-miterlimit="10"/>
<path opacity="0.3" d="M4.85161 150.72C4.85161 146.162 -3.23584 146.947 -3.23584 141.129" stroke="white" stroke-miterlimit="10"/>
</g>
<path opacity="0.3" d="M123.516 100.225H147.197" stroke="white" stroke-miterlimit="10"/>
<path opacity="0.3" d="M-14.8818 221.123H8.79954" stroke="white" stroke-miterlimit="10"/>
<path opacity="0.3" d="M45.9292 175.417L62.6718 158.682" stroke="white" stroke-miterlimit="10"/>
<path opacity="0.3" d="M230.475 56.7157L247.217 39.9875" stroke="white" stroke-miterlimit="10"/>
</g>
<path d="M91.2585 147.428C89.3241 148.642 86.7691 148.062 85.5543 146.129C84.333 144.196 84.9205 141.643 86.8483 140.43C88.7827 139.216 91.3377 139.796 92.5525 141.729C93.7738 143.662 93.1929 146.215 91.2585 147.428Z" stroke="white" stroke-width="5" stroke-miterlimit="10" stroke-linecap="round" stroke-linejoin="round"/>
<path d="M58.651 33.7011C56.7166 34.9148 54.1617 34.3343 52.9469 32.4016C51.7321 30.4689 52.3131 27.9161 54.2409 26.7024C56.1753 25.4886 58.7302 26.0691 59.945 28.0018C61.1664 29.928 60.5854 32.4808 58.651 33.7011Z" stroke="white" stroke-width="5" stroke-miterlimit="10" stroke-linecap="round" stroke-linejoin="round"/>
<path d="M238.001 83.7804C236.067 84.9942 233.512 84.4137 232.297 82.481C231.082 80.5482 231.663 77.9955 233.591 76.7818C235.525 75.568 238.08 76.1485 239.295 78.0812C240.51 80.014 239.929 82.5667 238.001 83.7804Z" stroke="white" stroke-width="5" stroke-miterlimit="10" stroke-linecap="round" stroke-linejoin="round"/>
</svg>
