<svg width="260" height="242" viewBox="0 0 260 242" fill="none" xmlns="http://www.w3.org/2000/svg">
<path d="M130.594 74.8618L120.526 65.4291" stroke="white" stroke-width="5" stroke-miterlimit="10" stroke-linecap="round" stroke-linejoin="round"/>
<path d="M120.837 75.1784L130.284 65.1124" stroke="white" stroke-width="5" stroke-miterlimit="10" stroke-linecap="round" stroke-linejoin="round"/>
<path d="M142.167 219.612L132.093 210.172" stroke="white" stroke-width="5" stroke-miterlimit="10" stroke-linecap="round" stroke-linejoin="round"/>
<path d="M132.409 219.922L141.85 209.862" stroke="white" stroke-width="5" stroke-miterlimit="10" stroke-linecap="round" stroke-linejoin="round"/>
<path d="M15.2438 61.0887L5.17578 51.6559" stroke="white" stroke-width="5" stroke-miterlimit="10" stroke-linecap="round" stroke-linejoin="round"/>
<path d="M5.48633 61.4053L14.9272 51.3459" stroke="white" stroke-width="5" stroke-miterlimit="10" stroke-linecap="round" stroke-linejoin="round"/>
<path d="M254.553 125.937L244.485 116.504" stroke="white" stroke-width="5" stroke-miterlimit="10" stroke-linecap="round" stroke-linejoin="round"/>
<path d="M244.796 126.254L254.243 116.194" stroke="white" stroke-width="5" stroke-miterlimit="10" stroke-linecap="round" stroke-linejoin="round"/>
<path d="M205.421 89.9673L198.489 77.9818L191.576 89.9739L184.664 101.959L198.508 101.946L212.353 101.94L205.421 89.9673Z" stroke="white" stroke-width="5" stroke-miterlimit="10" stroke-linecap="round" stroke-linejoin="round"/>
<path d="M182.499 236.406L175.567 224.427L168.654 236.412L161.742 248.398L175.587 248.391L189.431 248.385L182.499 236.406Z" stroke="white" stroke-width="5" stroke-miterlimit="10" stroke-linecap="round" stroke-linejoin="round"/>
<path d="M79.9298 34.1954L83.5081 20.8246L70.1391 24.4196L56.7568 28.008L66.5608 37.7838L76.3582 47.5662L79.9298 34.1954Z" stroke="white" stroke-width="5" stroke-miterlimit="10" stroke-linecap="round" stroke-linejoin="round"/>
<path d="M70.1391 187.356L82.135 180.429L70.1326 173.523L58.1367 166.61L58.1499 180.449L58.1565 194.282L70.1391 187.356Z" stroke="white" stroke-width="5" stroke-miterlimit="10" stroke-linecap="round" stroke-linejoin="round"/>
<path d="M228.825 164.704C228.825 170.502 224.124 175.199 218.321 175.199C212.518 175.199 207.817 170.502 207.817 164.704C207.817 158.906 212.518 154.209 218.321 154.209C224.124 154.209 228.825 158.906 228.825 164.704Z" stroke="white" stroke-width="5" stroke-miterlimit="10" stroke-linecap="round" stroke-linejoin="round"/>
<path d="M175.745 47.5662C175.745 53.3644 171.044 58.0609 165.241 58.0609C159.438 58.0609 154.737 53.3644 154.737 47.5662C154.737 41.768 159.445 37.0714 165.241 37.0714C171.038 37.0648 175.745 41.768 175.745 47.5662Z" stroke="white" stroke-width="5" stroke-miterlimit="10" stroke-linecap="round" stroke-linejoin="round"/>
<path d="M126.692 180.449C126.692 174.651 131.4 169.954 137.196 169.954C142.993 169.954 147.7 174.651 147.7 180.449" stroke="white" stroke-width="5" stroke-miterlimit="10" stroke-linecap="round" stroke-linejoin="round"/>
<path d="M16.1611 95.218C16.1611 89.4199 20.8419 84.7233 26.6187 84.7233C32.3954 84.7233 37.0763 89.4199 37.0763 95.218" stroke="white" stroke-width="5" stroke-miterlimit="10" stroke-linecap="round" stroke-linejoin="round"/>
<path d="M140.741 23.4763C134.938 23.4763 130.237 18.7995 130.237 13.0277C130.237 7.25596 134.938 2.57916 140.741 2.57916" stroke="white" stroke-width="5" stroke-miterlimit="10" stroke-linecap="round" stroke-linejoin="round"/>
<path d="M33.2605 246.907C33.2605 252.705 28.5599 257.402 22.7567 257.402C16.9536 257.402 12.2529 252.705 12.2529 246.907C12.2529 241.109 16.9602 236.412 22.7567 236.412C28.5533 236.412 33.2605 241.109 33.2605 246.907Z" stroke="white" stroke-width="5" stroke-miterlimit="10" stroke-linecap="round" stroke-linejoin="round"/>
<path d="M112.789 101.959H91.8936V122.837H112.789V101.959Z" stroke="white" stroke-width="5" stroke-miterlimit="10" stroke-linecap="round" stroke-linejoin="round"/>
<path d="M111.745 235.265H90.8496V256.142H111.745V235.265Z" stroke="white" stroke-width="5" stroke-miterlimit="10" stroke-linecap="round" stroke-linejoin="round"/>
<path d="M262.383 2.58575H241.487V23.4631H262.383V2.58575Z" stroke="white" stroke-width="5" stroke-miterlimit="10" stroke-linecap="round" stroke-linejoin="round"/>
<path d="M211.455 214.895C206.893 214.895 207.678 206.815 201.855 206.815" stroke="white" stroke-width="5" stroke-miterlimit="10" stroke-linecap="round" stroke-linejoin="round"/>
<path d="M230.647 214.895C226.085 214.895 226.871 206.815 221.048 206.815" stroke="white" stroke-width="5" stroke-miterlimit="10" stroke-linecap="round" stroke-linejoin="round"/>
<path d="M211.455 214.895C216.017 214.895 215.231 206.815 221.054 206.815" stroke="white" stroke-width="5" stroke-miterlimit="10" stroke-linecap="round" stroke-linejoin="round"/>
<path d="M230.646 214.895C235.208 214.895 234.423 206.815 240.246 206.815" stroke="white" stroke-width="5" stroke-miterlimit="10" stroke-linecap="round" stroke-linejoin="round"/>
<path d="M25.3981 138.628C20.8362 138.628 21.6218 130.548 15.7988 130.548" stroke="white" stroke-width="5" stroke-miterlimit="10" stroke-linecap="round" stroke-linejoin="round"/>
<path d="M44.5905 138.628C40.0285 138.628 40.8142 130.548 34.9912 130.548" stroke="white" stroke-width="5" stroke-miterlimit="10" stroke-linecap="round" stroke-linejoin="round"/>
<path d="M25.3984 138.628C29.9604 138.628 29.1748 130.548 34.9977 130.548" stroke="white" stroke-width="5" stroke-miterlimit="10" stroke-linecap="round" stroke-linejoin="round"/>
<path d="M44.5898 138.628C49.1518 138.628 48.3662 130.548 54.1891 130.548" stroke="white" stroke-width="5" stroke-miterlimit="10" stroke-linecap="round" stroke-linejoin="round"/>
<path d="M213.046 30.4157C213.046 34.9738 204.959 34.1888 204.959 40.0068" stroke="white" stroke-width="5" stroke-miterlimit="10" stroke-linecap="round" stroke-linejoin="round"/>
<path d="M213.046 11.2402C213.046 15.7982 204.959 15.0133 204.959 20.8312" stroke="white" stroke-width="5" stroke-miterlimit="10" stroke-linecap="round" stroke-linejoin="round"/>
<path d="M213.046 30.4157C213.046 25.8576 204.959 26.6426 204.959 20.8246" stroke="white" stroke-width="5" stroke-miterlimit="10" stroke-linecap="round" stroke-linejoin="round"/>
<path d="M213.046 11.2402C213.046 6.68211 204.959 7.46707 204.959 1.64911" stroke="white" stroke-width="5" stroke-miterlimit="10" stroke-linecap="round" stroke-linejoin="round"/>
<path d="M154.196 130.726C154.196 135.284 146.108 134.499 146.108 140.317" stroke="white" stroke-width="5" stroke-miterlimit="10" stroke-linecap="round" stroke-linejoin="round"/>
<path d="M154.196 111.551C154.196 116.109 146.108 115.324 146.108 121.142" stroke="white" stroke-width="5" stroke-miterlimit="10" stroke-linecap="round" stroke-linejoin="round"/>
<path d="M154.196 130.726C154.196 126.168 146.108 126.953 146.108 121.135" stroke="white" stroke-width="5" stroke-miterlimit="10" stroke-linecap="round" stroke-linejoin="round"/>
<path d="M154.196 111.551C154.196 106.992 146.108 107.777 146.108 101.959" stroke="white" stroke-width="5" stroke-miterlimit="10" stroke-linecap="round" stroke-linejoin="round"/>
<path d="M234.457 236.412H258.138" stroke="white" stroke-width="5" stroke-miterlimit="10" stroke-linecap="round" stroke-linejoin="round"/>
<path d="M1.65039 168.042H25.3318" stroke="white" stroke-width="5" stroke-miterlimit="10" stroke-linecap="round" stroke-linejoin="round"/>
<path d="M236.226 58.0609H259.907" stroke="white" stroke-width="5" stroke-miterlimit="10" stroke-linecap="round" stroke-linejoin="round"/>
<path d="M18.248 21.3919L34.9973 4.66364" stroke="white" stroke-width="5" stroke-miterlimit="10" stroke-linecap="round" stroke-linejoin="round"/>
<g opacity="0.3">
<path opacity="0.3" d="M220.486 98.78L213.554 86.7945L206.642 98.78L199.723 110.772L213.567 110.759L227.418 110.752L220.486 98.78Z" stroke="white" stroke-miterlimit="10"/>
<path opacity="0.3" d="M197.564 245.219L190.632 233.233L183.72 245.225L176.801 257.211L190.645 257.204L204.496 257.197L197.564 245.219Z" stroke="white" stroke-miterlimit="10"/>
<path opacity="0.3" d="M94.9953 43.0081L98.5669 29.6373L85.1979 33.2323L71.8223 36.8207L81.6196 46.5965L91.417 56.3722L94.9953 43.0081Z" stroke="white" stroke-miterlimit="10"/>
<path opacity="0.3" d="M85.2053 196.168L97.1945 189.242L85.1987 182.336L73.1963 175.423L73.2095 189.255L73.2161 203.094L85.2053 196.168Z" stroke="white" stroke-miterlimit="10"/>
<path opacity="0.3" d="M243.89 173.516C243.89 179.315 239.19 184.011 233.387 184.011C227.583 184.011 222.883 179.315 222.883 173.516C222.883 167.718 227.583 163.022 233.387 163.022C239.183 163.015 243.89 167.718 243.89 173.516Z" stroke="white" stroke-miterlimit="10"/>
<path opacity="0.3" d="M190.803 56.3722C190.803 62.1704 186.103 66.867 180.3 66.867C174.497 66.867 169.796 62.1704 169.796 56.3722C169.796 50.574 174.503 45.8774 180.3 45.8774C186.103 45.8774 190.803 50.5806 190.803 56.3722Z" stroke="white" stroke-miterlimit="10"/>
<path opacity="0.3" d="M141.758 189.262C141.758 183.464 146.465 178.767 152.262 178.767C158.058 178.767 162.765 183.464 162.765 189.262" stroke="white" stroke-miterlimit="10"/>
<path opacity="0.3" d="M31.2266 104.031C31.2266 98.2325 35.9074 93.5359 41.6841 93.5359C47.4609 93.5359 52.1417 98.2325 52.1417 104.031" stroke="white" stroke-miterlimit="10"/>
<path opacity="0.3" d="M155.807 32.289C150.003 32.289 145.303 27.6122 145.303 21.8404C145.303 16.0686 150.003 11.3918 155.807 11.3918" stroke="white" stroke-miterlimit="10"/>
<path opacity="0.3" d="M127.854 110.772H106.959V131.65H127.854V110.772Z" stroke="white" stroke-miterlimit="10"/>
<path opacity="0.3" d="M277.442 11.3984H256.547V32.2758H277.442V11.3984Z" stroke="white" stroke-miterlimit="10"/>
<g opacity="0.3">
<path opacity="0.3" d="M226.52 223.708C221.958 223.708 222.744 215.627 216.921 215.627" stroke="white" stroke-miterlimit="10"/>
<path opacity="0.3" d="M245.713 223.708C241.151 223.708 241.936 215.627 236.113 215.627" stroke="white" stroke-miterlimit="10"/>
<path opacity="0.3" d="M226.521 223.708C231.082 223.708 230.297 215.627 236.12 215.627" stroke="white" stroke-miterlimit="10"/>
<path opacity="0.3" d="M245.712 223.708C250.274 223.708 249.488 215.627 255.311 215.627" stroke="white" stroke-miterlimit="10"/>
</g>
<g opacity="0.3">
<path opacity="0.3" d="M40.4636 147.441C35.9016 147.441 36.6872 139.361 30.8643 139.361" stroke="white" stroke-miterlimit="10"/>
<path opacity="0.3" d="M59.6559 147.441C55.094 147.441 55.8796 139.361 50.0566 139.361" stroke="white" stroke-miterlimit="10"/>
<path opacity="0.3" d="M40.4639 147.441C45.0258 147.441 44.2402 139.361 50.0632 139.361" stroke="white" stroke-miterlimit="10"/>
<path opacity="0.3" d="M59.6553 147.441C64.2173 147.441 63.4316 139.361 69.2546 139.361" stroke="white" stroke-miterlimit="10"/>
</g>
<g opacity="0.3">
<path opacity="0.3" d="M228.112 39.2284C228.112 43.7865 220.024 43.0015 220.024 48.8195" stroke="white" stroke-miterlimit="10"/>
<path opacity="0.3" d="M228.112 20.0529C228.112 24.6109 220.024 23.826 220.024 29.6439" stroke="white" stroke-miterlimit="10"/>
<path opacity="0.3" d="M228.112 39.2284C228.112 34.6703 220.024 35.4553 220.024 29.6373" stroke="white" stroke-miterlimit="10"/>
<path opacity="0.3" d="M228.112 20.0529C228.112 15.4948 220.024 16.2798 220.024 10.4618" stroke="white" stroke-miterlimit="10"/>
</g>
<g opacity="0.3">
<path opacity="0.3" d="M169.261 139.539C169.261 144.097 161.174 143.312 161.174 149.13" stroke="white" stroke-miterlimit="10"/>
<path opacity="0.3" d="M169.261 120.363C169.261 124.921 161.174 124.136 161.174 129.954" stroke="white" stroke-miterlimit="10"/>
<path opacity="0.3" d="M169.261 139.539C169.261 134.981 161.174 135.766 161.174 129.948" stroke="white" stroke-miterlimit="10"/>
<path opacity="0.3" d="M169.261 120.363C169.261 115.805 161.174 116.59 161.174 110.772" stroke="white" stroke-miterlimit="10"/>
</g>
<path opacity="0.3" d="M16.7158 176.854H40.3972" stroke="white" stroke-miterlimit="10"/>
<path opacity="0.3" d="M251.285 66.8737H274.967" stroke="white" stroke-miterlimit="10"/>
<path opacity="0.3" d="M33.3135 30.2046L50.0561 13.4763" stroke="white" stroke-miterlimit="10"/>
</g>
<path d="M184.652 178.701C182.717 179.915 180.162 179.334 178.947 177.402C177.733 175.469 178.314 172.916 180.241 171.702C182.176 170.489 184.731 171.069 185.945 173.002C187.167 174.928 186.586 177.481 184.652 178.701Z" stroke="white" stroke-width="5" stroke-miterlimit="10" stroke-linecap="round" stroke-linejoin="round"/>
<path d="M35.5187 213.675C33.5843 214.889 31.0293 214.308 29.8146 212.375C28.5998 210.443 29.1808 207.89 31.1086 206.676C33.043 205.462 35.5979 206.043 36.8127 207.976C38.0341 209.902 37.4531 212.455 35.5187 213.675Z" stroke="white" stroke-width="5" stroke-miterlimit="10" stroke-linecap="round" stroke-linejoin="round"/>
<path d="M77.9162 83.5359C75.9818 84.7496 73.4268 84.1691 72.212 82.2364C70.9973 80.3037 71.5782 77.7509 73.506 76.5372C75.4404 75.3235 77.9954 75.9039 79.2102 77.8367C80.4315 79.7694 79.8506 82.3222 77.9162 83.5359Z" stroke="white" stroke-width="5" stroke-miterlimit="10" stroke-linecap="round" stroke-linejoin="round"/>
</svg>
