<svg width="20" height="24" viewBox="0 0 20 24" fill="none" xmlns="http://www.w3.org/2000/svg">
<path fill-rule="evenodd" clip-rule="evenodd" d="M19.4569 3.97672H14.8362C14.5376 2.47108 13.5574 1.18877 12.1817 0.509539C10.8062 -0.169846 9.19421 -0.169846 7.81848 0.509539C6.44291 1.18893 5.46269 2.47116 5.16406 3.97672H0.543092C0.24353 3.97672 0 4.22051 0 4.52041V23.4553C0 23.6001 0.0570611 23.7378 0.158957 23.8398C0.260851 23.9419 0.399428 24 0.543112 24H19.4569C19.6006 24 19.7391 23.9419 19.841 23.8398C19.9429 23.7378 20 23.6001 20 23.4553V4.52041C20 4.22052 19.7565 3.97672 19.4569 3.97672ZM10.0002 1.08797C10.8521 1.09001 11.6795 1.37462 12.352 1.89691C13.0245 2.42021 13.5054 3.15161 13.7184 3.97685H6.28205C6.49501 3.15159 6.97596 2.42021 7.64846 1.89691C8.32096 1.37462 9.14835 1.09003 10.0002 1.08797H10.0002ZM1.08749 22.9116H18.913L18.9132 5.06515H14.9311V7.31037C14.9311 7.61129 14.6875 7.85407 14.388 7.85407C14.0874 7.85407 13.8439 7.61128 13.8439 7.31037V5.06515H6.15684V7.31037C6.15684 7.61129 5.91331 7.85407 5.61273 7.85407C5.31316 7.85407 5.06964 7.61128 5.06964 7.31037V5.06515H1.08749V22.9116Z" fill="white"/>
</svg>
