<svg width="16" height="16" viewBox="0 0 16 16" fill="none" xmlns="http://www.w3.org/2000/svg">
<path fill-rule="evenodd" clip-rule="evenodd" d="M1.98854 2.85152C3.32162 1.3434 5.17894 0.400747 7.1827 0.214718L7.18252 0.214529C9.52153 0.00577645 11.8332 0.844685 13.4942 2.50498C15.1545 4.16596 15.9935 6.47768 15.7847 8.81669C15.5987 10.8205 14.656 12.6778 13.1479 14.0109C11.6399 15.3432 9.6804 16.0506 7.66929 15.9888C5.65762 15.9263 3.74581 15.0999 2.32228 13.6771C0.899541 12.2537 0.0730623 10.342 0.0105626 8.33011C-0.0511786 6.31919 0.656191 4.3596 1.98854 2.85152ZM7.4724 10.9479L12.1578 6.31185L12.1636 6.31166C12.4467 6.01754 12.4437 5.55064 12.1569 5.26019C11.8694 4.96902 11.4033 4.96092 11.1055 5.24034L6.93418 9.361L4.70547 7.22283C4.40473 6.93387 3.92752 6.94415 3.63929 7.24416C3.35033 7.5449 3.36061 8.02212 3.66061 8.31034L6.4224 10.9479C6.71432 11.2324 7.18048 11.2324 7.4724 10.9479Z" fill="#52B958"/>
</svg>
