<svg width="36" height="36" viewBox="0 0 36 36" fill="none" xmlns="http://www.w3.org/2000/svg">
<path fill-rule="evenodd" clip-rule="evenodd" d="M4.28571 0H31.7143C34.08 0 36 1.92 36 4.28571V31.7143C36 34.08 34.08 36 31.7143 36H4.28571C1.92 36 0 34.08 0 31.7143V4.28571C0 1.92 1.92 0 4.28571 0ZM26.5714 12.8571H28.2857V9.42857C28.2857 9.42857 27.3429 8.57143 24.8571 8.57143C21.4286 8.57143 19.7143 11.1429 19.7143 14.5714V17.1429H16.2857V21.4286H19.7143V34.2857H24V21.4286H27.4286L28.2857 17.1429H24V14.5714C24 13.2857 24.7371 12.8571 26.5714 12.8571Z" fill="#444444"/>
</svg>
