<svg width="36" height="36" viewBox="0 0 36 36" fill="none" xmlns="http://www.w3.org/2000/svg">
<path fill-rule="evenodd" clip-rule="evenodd" d="M10.4495 0C4.69471 0 0 4.69471 0 10.4495V25.5505C0 31.3053 4.69471 36 10.4495 36H25.5505C31.3053 36 36 31.3053 36 25.5505V10.4495C36 4.69471 31.3053 0 25.5505 0H10.4495ZM10.4495 2.76923H25.5505C29.8071 2.76923 33.2308 6.1875 33.2308 10.4495V25.5505C33.2308 29.8071 29.8125 33.2308 25.5505 33.2308H10.4495C6.19291 33.2308 2.76923 29.8125 2.76923 25.5505V10.4495C2.76923 6.19291 6.1875 2.76923 10.4495 2.76923ZM26.3077 7.61539C26.3077 6.46875 27.238 5.53846 28.3846 5.53846C29.5312 5.53846 30.4615 6.46875 30.4615 7.61539C30.4615 8.76202 29.5312 9.69231 28.3846 9.69231C27.238 9.69231 26.3077 8.76202 26.3077 7.61539ZM18 8.30769C12.6617 8.30769 8.30769 12.6617 8.30769 18C8.30769 23.3383 12.6617 27.6923 18 27.6923C23.3383 27.6923 27.6923 23.3383 27.6923 18C27.6923 12.6617 23.3383 8.30769 18 8.30769ZM24.9231 18C24.9231 14.1599 21.8401 11.0769 18 11.0769C14.1599 11.0769 11.0769 14.1599 11.0769 18C11.0769 21.8401 14.1599 24.9231 18 24.9231C21.8401 24.9231 24.9231 21.8401 24.9231 18Z" fill="#444444"/>
</svg>
