<svg width="23" height="24" viewBox="0 0 23 24" fill="none" xmlns="http://www.w3.org/2000/svg">
<path fill-rule="evenodd" clip-rule="evenodd" d="M11.4286 0C5.12686 0 0 4.87086 0 10.8571C0 13.7657 1.24343 16.5571 3.42857 18.596V23.5625L8.09152 21.2321C9.18752 21.551 10.3086 21.7143 11.4286 21.7143C17.7303 21.7143 22.8571 16.8434 22.8571 10.8571C22.8571 4.87086 17.7303 0 11.4286 0ZM11.4286 2.28571C16.4697 2.28571 20.5714 6.13143 20.5714 10.8571C20.5714 15.5829 16.4697 19.4286 11.4286 19.4286C10.5269 19.4286 9.61791 19.2962 8.72991 19.0379L7.87054 18.7879L7.0692 19.1875L5.71429 19.8661V18.596V17.6027L4.98661 16.9263C3.27004 15.3241 2.28571 13.1109 2.28571 10.8571C2.28571 6.13143 6.38743 2.28571 11.4286 2.28571ZM4.57143 13.7143L10.2857 8L13.1429 10.2857L18.2857 8L12.5714 13.7143L9.71429 11.4286L4.57143 13.7143Z" fill="white"/>
</svg>
