<svg width="36" height="36" viewBox="0 0 36 36" fill="none" xmlns="http://www.w3.org/2000/svg">
<path fill-rule="evenodd" clip-rule="evenodd" d="M18 36C27.9411 36 36 27.9411 36 18C36 8.05887 27.9411 0 18 0C8.05887 0 0 8.05887 0 18C0 27.9411 8.05887 36 18 36Z" fill="#FA6400"/>
<path d="M28.5845 24.1311C28.5487 24.2806 28.4906 24.4235 28.4116 24.5564C27.8092 25.5407 27.0747 26.4369 26.227 27.2201C25.9736 27.4236 25.7077 27.6097 25.4294 27.7775L24.7912 27.8182C24.4829 27.7775 24.1722 27.7501 23.8655 27.6953V27.6944C22.5012 27.4153 21.1917 26.9128 19.9901 26.2059C17.9294 25.0497 16.0848 23.6077 14.3174 22.0528C12.6979 20.6624 11.2164 19.119 9.89435 17.4428C8.98616 16.2608 8.18681 15.0191 7.70146 13.5944C7.58264 13.2439 7.50121 12.88 7.404 12.5312L7.36328 11.8933C7.63332 11.0875 8.17758 10.4662 8.75008 9.86901C9.17552 9.43127 9.61176 9.01845 10.0605 8.60977C10.4319 8.25842 10.9512 8.11055 11.4514 8.21438C11.7364 8.25675 11.9932 8.40958 12.166 8.63967C13.0809 9.85155 13.9849 11.0725 14.9313 12.2654C15.3294 12.7405 15.4199 13.4017 15.1657 13.9665C15.051 14.2706 14.8998 14.5621 14.7593 14.8578C14.5973 15.2 14.4378 15.5448 14.2616 15.8787V15.8778C14.1852 15.9817 14.2018 16.1262 14.2998 16.2101C14.938 16.863 15.5462 17.5457 16.2143 18.1729V18.172C17.4432 19.3657 18.7726 20.4513 20.1878 21.4174C20.3133 21.5262 20.5003 21.5262 20.6266 21.4174C21.1434 21.0643 21.6685 20.7263 22.2003 20.3949C22.5709 20.1324 23.0271 20.0194 23.4766 20.0801C23.6137 20.1016 23.7467 20.1482 23.868 20.2163C25.2731 21.017 26.6773 21.8227 28.08 22.6317C28.5312 22.8867 28.7414 23.5246 28.5843 24.131L28.5845 24.1311Z" fill="white"/>
</svg>
