<svg width="21" height="21" viewBox="0 0 21 21" fill="none" xmlns="http://www.w3.org/2000/svg">
<path fill-rule="evenodd" clip-rule="evenodd" d="M2.57476 14.3905C4.13956 15.9437 6.25836 16.8108 8.46376 16.7999L8.46396 16.7995C10.6584 16.7917 12.7607 15.9144 14.31 14.3589C15.8592 12.8043 16.7287 10.6989 16.728 8.5035C16.7304 6.2989 15.8546 4.18328 14.296 2.6239C12.7366 1.06456 10.621 0.189555 8.41556 0.191899C6.21096 0.194299 4.0968 1.0732 2.54056 2.6357C0.98422 4.1975 0.113128 6.3147 0.120159 8.5201C0.126359 10.7249 1.00914 12.8374 2.57476 14.3905ZM3.70836 3.73896C4.97316 2.48662 6.68408 1.78896 8.46376 1.7999L8.4637 1.80002C10.2355 1.80706 11.9325 2.5172 13.1809 3.77424C14.4301 5.03124 15.1293 6.73196 15.1254 8.50384C15.1254 10.2836 14.4168 11.9898 13.1567 13.2468C11.8967 14.5039 10.1887 15.2078 8.40908 15.2039C6.62948 15.2 4.92398 14.4883 3.67008 13.2258C2.4154 11.9632 1.71461 10.2538 1.72164 8.47416C1.72946 6.69436 2.44352 4.9913 3.70836 3.73896Z" fill="black"/>
<path d="M19.0677 20.1999L13.5381 14.6999L14.6701 13.5679L20.1997 19.0655L19.0677 20.1999Z" fill="black"/>
</svg>
