<svg width="16" height="20" viewBox="0 0 16 20" fill="none" xmlns="http://www.w3.org/2000/svg">
<path fill-rule="evenodd" clip-rule="evenodd" d="M16 19.0909C16 19.5934 15.6024 20 15.1111 20C14.6198 20 14.2222 19.5934 14.2222 19.0909C14.2222 15.577 11.4358 12.7273 8 12.7273C4.56422 12.7273 1.77778 15.577 1.77778 19.0909C1.77778 19.5934 1.38021 20 0.888889 20C0.397569 20 0 19.5934 0 19.0909C0 14.5721 3.5816 10.9091 8 10.9091C12.4184 10.9091 16 14.5721 16 19.0909ZM8 10C5.30036 10 3.11111 7.761 3.11111 5C3.11111 2.239 5.30036 0 8 0C10.6996 0 12.8889 2.239 12.8889 5C12.8889 7.761 10.6996 10 8 10ZM8 8.18182C9.71876 8.18182 11.1111 6.75782 11.1111 5C11.1111 3.24218 9.71876 1.81818 8 1.81818C6.28124 1.81818 4.88889 3.24218 4.88889 5C4.88889 6.75782 6.28124 8.18182 8 8.18182Z" fill="black"/>
</svg>
