<svg width="39" height="36" viewBox="0 0 39 36" fill="none" xmlns="http://www.w3.org/2000/svg">
<path fill-rule="evenodd" clip-rule="evenodd" d="M8.35714 0L11.1429 8.30769V13.8462H13V8.30769L15.7857 0H13.9286L12.0714 5.53846L10.2143 0H8.35714ZM18.5714 3.69231C17.5812 3.69231 17.0951 3.84736 16.4894 4.34135C15.909 4.82812 15.7494 5.20313 15.7857 6.46154V11.0769C15.7857 11.9964 15.9381 12.6022 16.4967 13.1394C17.077 13.6767 17.6247 13.8462 18.5714 13.8462C19.5617 13.8462 20.1021 13.6767 20.6607 13.1394C21.2411 12.6238 21.3571 11.9964 21.3571 11.0769V6.46154C21.3571 5.64664 21.2121 4.875 20.6498 4.35938C20.0695 3.82933 19.471 3.69231 18.5714 3.69231ZM23.2143 3.69231V12C23.2143 12.8978 24.1247 13.8462 25.0714 13.8462C26.0181 13.8462 26.5187 13.3738 26.9286 12.9231V13.8462H28.7857V3.69231H26.9286V11.0769C26.9177 11.7079 26.1705 12 26 12C25.8078 12 25.0714 11.9603 25.0714 11.0769V3.69231H23.2143ZM18.5714 5.53846C18.8507 5.53846 19.5 5.53486 19.5 6.46154V11.0769C19.5 11.9712 18.8725 12 18.5714 12C18.2921 12 17.6429 11.9892 17.6429 11.0769V6.46154C17.6429 5.70793 18.0455 5.53846 18.5714 5.53846ZM5.57143 15.6923C2.23438 15.6923 0 17.8918 0 21.2308V30C0 33.3389 2.23438 36 5.57143 36H33.4286C36.7656 36 39 33.8005 39 30.4615V21.2308C39 17.8918 36.7656 15.6923 33.4286 15.6923H5.57143ZM7.42857 19.3846H13V21.2308H11.1429V32.3077H9.28571V21.2308H7.42857V19.3846ZM20.4286 19.3846H22.2857V23.0769C22.4997 22.7452 22.8189 22.482 23.1236 22.3341C23.421 22.1827 23.7221 22.0962 24.0268 22.0962C24.6289 22.0962 25.1004 22.3125 25.4233 22.7163C25.7461 23.1238 26 23.6647 26 24.4615V30C26 30.6851 25.7679 31.1106 25.4632 31.4748C25.1657 31.8389 24.7196 32.3005 24.1429 32.3077C23.1671 32.3185 22.6448 31.7993 22.2857 31.3846V32.3077H20.4286V19.3846ZM13 22.1538H14.8571V29.5385C14.8571 29.7512 15.1074 30.4688 15.7857 30.4615C16.5402 30.4543 16.5474 29.7548 16.7143 29.5385V22.1538H18.5714V32.3077H16.7143V31.3846C16.3697 31.7885 16.192 31.9147 15.8039 32.1058C15.4194 32.3221 15.0276 32.3077 14.6649 32.3077C14.2151 32.3077 13.7037 31.9038 13.4643 31.601C13.2503 31.3233 13 31.0385 13 30.4615V22.1538ZM29.8993 22.1538C30.7807 22.1538 31.4009 22.3413 31.8689 22.8317C32.3477 23.3221 32.5 23.8954 32.5 24.8185V27.6923H28.7857V29.1202C28.7857 29.6358 28.8546 29.9639 28.9888 30.1587C29.1158 30.3714 29.3733 30.4651 29.7143 30.4615C30.0915 30.4579 30.3309 30.3822 30.4579 30.2127C30.5884 30.0613 30.6429 29.6322 30.6429 29.0769V28.6154H32.5V29.1635C32.5 30.1695 32.4202 30.9195 31.9196 31.4099C31.4481 31.9255 30.7118 32.1635 29.7469 32.1635C28.8655 32.1635 28.1763 31.9038 27.683 31.3702C27.1897 30.8365 26.9322 30.1046 26.9322 29.1635V24.8185C26.9322 23.982 27.226 23.3618 27.7665 22.8101C28.2017 22.3666 29.0179 22.1538 29.8993 22.1538ZM23.2143 23.5385C22.7028 23.5385 22.293 23.9964 22.2857 24.4615V30C22.293 30.2668 22.7028 30.4615 23.2143 30.4615C23.7257 30.4615 24.1429 30.0685 24.1429 29.5601V24.9231C24.1429 24 23.7257 23.5385 23.2143 23.5385ZM29.7143 24C29.2028 24 28.793 24.4291 28.7857 24.9231V25.8462H30.6429V24.9231C30.6429 24.357 30.2257 24 29.7143 24Z" fill="#444444"/>
</svg>
