<svg width="36" height="36" viewBox="0 0 36 36" fill="none" xmlns="http://www.w3.org/2000/svg">
<path fill-rule="evenodd" clip-rule="evenodd" d="M0 4.28571C0 1.92899 1.92899 0 4.28571 0H31.7143C34.071 0 36 1.92899 36 4.28571V31.7143C36 34.071 34.071 36 31.7143 36H4.28571C1.92899 36 0 34.071 0 31.7143V4.28571ZM9.92578 1.71429H4.28571C2.85559 1.71429 1.71429 2.85559 1.71429 4.28571V31.7143C1.71429 33.1444 2.85559 34.2857 4.28571 34.2857H31.7143C33.1444 34.2857 34.2857 33.1444 34.2857 31.7143V28.3828C31.3127 30.0006 27.9374 30.8571 24.4286 30.8571C21.7886 30.8571 19.2348 30.3768 16.8348 29.4425C15.6713 28.9669 14.9106 29.3164 13.7713 29.8397L13.7394 29.8544L13.7026 29.871C12.4233 30.4511 10.8373 31.1703 8.40067 30.6864C8.02353 30.6092 7.74 30.2836 7.71429 29.8979C7.68857 29.5122 7.9283 29.1507 8.29688 29.0307C9.25687 28.7135 9.75422 27.8739 10.0028 27.231C10.3971 26.211 10.3116 25.3284 10.2087 25.1484C6.95156 21.9427 5.14286 17.7086 5.14286 13.2857C5.14286 9.0155 6.86485 4.89916 9.92578 1.71429ZM24.8571 9.42857C25.3286 9.42857 25.7143 9.81429 25.7143 10.2857V18C25.7143 18.4714 25.3286 18.8571 24.8571 18.8571C24.3857 18.8571 24 18.4714 24 18V10.2857C24 9.81429 24.3857 9.42857 24.8571 9.42857ZM16.2857 10.2857H12C11.5286 10.2857 11.1429 10.6714 11.1429 11.1429C11.1429 11.6143 11.5286 12 12 12H14.7422L11.2718 17.5463C11.1089 17.812 11.0993 18.1461 11.245 18.4118C11.3993 18.6861 11.6914 18.8571 12 18.8571H16.2857C16.7571 18.8571 17.1429 18.4714 17.1429 18C17.1429 17.5286 16.7571 17.1429 16.2857 17.1429H13.5435L17.014 11.5965C17.1768 11.3308 17.1865 10.9967 17.0407 10.731C16.8865 10.4567 16.5943 10.2857 16.2857 10.2857ZM20.1429 12.8571C20.6657 12.8571 21.1538 13.0022 21.591 13.2422C21.7452 13.0193 21.9857 12.8571 22.2857 12.8571C22.7571 12.8571 23.1429 13.2429 23.1429 13.7143V18C23.1429 18.4714 22.7571 18.8571 22.2857 18.8571C21.9857 18.8571 21.7452 18.695 21.591 18.4721C21.1538 18.7121 20.6657 18.8571 20.1429 18.8571C18.4886 18.8571 17.1429 17.5114 17.1429 15.8571C17.1429 14.2029 18.4886 12.8571 20.1429 12.8571ZM32.5714 15.8571C32.5714 14.2029 31.2257 12.8571 29.5714 12.8571C27.9171 12.8571 26.5714 14.2029 26.5714 15.8571C26.5714 17.5114 27.9171 18.8571 29.5714 18.8571C31.2257 18.8571 32.5714 17.5114 32.5714 15.8571ZM20.1429 14.5714C20.0539 14.5714 19.9672 14.5811 19.8834 14.5982C19.7158 14.6324 19.5598 14.6984 19.423 14.7907C19.2862 14.883 19.1688 15.0005 19.0765 15.1373C18.9841 15.2741 18.9181 15.4301 18.8839 15.5977C18.8668 15.6814 18.8571 15.7682 18.8571 15.8571C18.8571 15.9461 18.8668 16.0328 18.8839 16.1166C18.901 16.2004 18.9251 16.2808 18.9576 16.3577C18.9901 16.4346 19.0303 16.5086 19.0765 16.577C19.1226 16.6454 19.1757 16.7081 19.2338 16.7662C19.2919 16.8243 19.3546 16.8774 19.423 16.9235C19.5598 17.0159 19.7158 17.0819 19.8834 17.1161C19.9672 17.1332 20.0539 17.1429 20.1429 17.1429C20.2318 17.1429 20.3186 17.1332 20.4023 17.1161C20.9889 16.9964 21.4286 16.4796 21.4286 15.8571C21.4286 15.1457 20.8543 14.5714 20.1429 14.5714ZM29.3119 14.5982C29.3957 14.5811 29.4825 14.5714 29.5714 14.5714C30.2829 14.5714 30.8571 15.1457 30.8571 15.8571C30.8571 16.4796 30.4174 16.9964 29.8309 17.1161C29.7471 17.1332 29.6604 17.1429 29.5714 17.1429C29.4825 17.1429 29.3957 17.1332 29.3119 17.1161C29.2282 17.099 29.1478 17.0749 29.0709 17.0424C28.9939 17.0099 28.92 16.9697 28.8516 16.9235C28.7832 16.8774 28.7205 16.8243 28.6624 16.7662C28.6043 16.7081 28.5512 16.6454 28.505 16.577C28.4589 16.5086 28.4186 16.4346 28.3862 16.3577C28.3537 16.2808 28.3296 16.2004 28.3125 16.1166C28.2954 16.0328 28.2857 15.9461 28.2857 15.8571C28.2857 15.7682 28.2954 15.6814 28.3125 15.5977C28.3296 15.5139 28.3537 15.4335 28.3862 15.3566C28.4511 15.2027 28.5461 15.0644 28.6624 14.9481C28.7205 14.89 28.7832 14.8369 28.8516 14.7907C28.92 14.7446 28.9939 14.7044 29.0709 14.6719C29.1478 14.6394 29.2282 14.6153 29.3119 14.5982Z" fill="#444444"/>
</svg>
